<svg width="30" height="33" viewBox="0 0 30 33" fill="none" xmlns="http://www.w3.org/2000/svg">
<path d="M11.5 16.5L18.5 23.3889M18.5 16.5L11.5 23.3889M1 6.16667H29M22 6.16667L21.5264 4.76834C21.0674 3.41326 20.8378 2.73572 20.4122 2.2348C20.0363 1.79245 19.5537 1.45005 19.0084 1.23901C18.3908 1 17.6652 1 16.2138 1H13.7862C12.3348 1 11.6092 1 10.9916 1.23901C10.4464 1.45005 9.96364 1.79245 9.58776 2.2348C9.16209 2.73572 8.93261 3.41326 8.47362 4.76834L8 6.16667M25.5 6.16667V23.7333C25.5 26.627 25.5 28.0737 24.9277 29.179C24.4244 30.1512 23.6214 30.9415 22.6335 31.4368C21.5103 32 20.0404 32 17.1 32H12.9C9.95972 32 8.48958 32 7.36655 31.4368C6.37869 30.9415 5.57555 30.1512 5.07222 29.179C4.5 28.0737 4.5 26.627 4.5 23.7333V6.16667" stroke="#7E6A6A" stroke-width="1.5" stroke-linecap="round" stroke-linejoin="round"/>
</svg>
