<svg width="18" height="18" viewBox="0 0 18 18" fill="none" xmlns="http://www.w3.org/2000/svg">
<g clip-path="url(#clip0_6_104)">
<path d="M10.125 12.9375V15.1875C10.125 15.9334 9.82868 16.6488 9.30124 17.1762C8.77379 17.7037 8.05842 18 7.3125 18H2.8125C2.06658 18 1.35121 17.7037 0.823762 17.1762C0.296316 16.6488 0 15.9334 0 15.1875V2.8125C0 2.06658 0.296316 1.35121 0.823762 0.823762C1.35121 0.296316 2.06658 0 2.8125 0L7.3125 0C8.05842 0 8.77379 0.296316 9.30124 0.823762C9.82868 1.35121 10.125 2.06658 10.125 2.8125V5.0625C10.125 5.21168 10.0657 5.35476 9.96025 5.46025C9.85476 5.56574 9.71168 5.625 9.5625 5.625C9.41332 5.625 9.27024 5.56574 9.16475 5.46025C9.05926 5.35476 9 5.21168 9 5.0625V2.8125C9 2.36495 8.82221 1.93572 8.50574 1.61926C8.18928 1.30279 7.76005 1.125 7.3125 1.125H2.8125C2.36495 1.125 1.93573 1.30279 1.61926 1.61926C1.30279 1.93572 1.125 2.36495 1.125 2.8125V15.1875C1.125 15.6351 1.30279 16.0643 1.61926 16.3807C1.93573 16.6972 2.36495 16.875 2.8125 16.875H7.3125C7.76005 16.875 8.18928 16.6972 8.50574 16.3807C8.82221 16.0643 9 15.6351 9 15.1875V12.9375C9 12.7883 9.05926 12.6452 9.16475 12.5398C9.27024 12.4343 9.41332 12.375 9.5625 12.375C9.71168 12.375 9.85476 12.4343 9.96025 12.5398C10.0657 12.6452 10.125 12.7883 10.125 12.9375ZM17.9573 8.65238C18.0135 8.51465 18.0135 8.36035 17.9573 8.22262C17.9284 8.15425 17.8868 8.09201 17.8346 8.03925L13.3346 3.53925C13.2824 3.48687 13.2203 3.44531 13.152 3.41695C13.0836 3.38859 13.0104 3.37399 12.9364 3.37399C12.8624 3.37399 12.7891 3.38859 12.7208 3.41695C12.6524 3.44531 12.5904 3.48687 12.5381 3.53925C12.4857 3.5915 12.4442 3.65357 12.4158 3.72191C12.3875 3.79025 12.3729 3.86351 12.3729 3.9375C12.3729 4.01149 12.3875 4.08475 12.4158 4.15309C12.4442 4.22143 12.4857 4.2835 12.5381 4.33575L16.0796 7.875H5.0625C4.91332 7.875 4.77024 7.93426 4.66475 8.03975C4.55926 8.14524 4.5 8.28832 4.5 8.4375C4.5 8.58668 4.55926 8.72976 4.66475 8.83525C4.77024 8.94074 4.91332 9 5.0625 9H16.0796L12.5392 12.5392C12.4869 12.5915 12.4453 12.6536 12.4169 12.7219C12.3886 12.7903 12.374 12.8635 12.374 12.9375C12.374 13.0115 12.3886 13.0847 12.4169 13.1531C12.4453 13.2214 12.4869 13.2835 12.5392 13.3358C12.5916 13.388 12.6537 13.4293 12.722 13.4575C12.7904 13.4857 12.8636 13.5001 12.9375 13.5C13.0114 13.5001 13.0846 13.4857 13.153 13.4575C13.2213 13.4293 13.2834 13.388 13.3358 13.3358L17.8358 8.83575C17.8875 8.78289 17.9288 8.72066 17.9573 8.65238Z" fill="#7E6A6A"/>
</g>
<defs>
<clipPath id="clip0_6_104">
<rect width="18" height="18" fill="white"/>
</clipPath>
</defs>
</svg>
