<svg width="38" height="38" viewBox="0 0 38 38" fill="none" xmlns="http://www.w3.org/2000/svg">
<circle cx="19" cy="19" r="18.5" fill="#E8BDBD" stroke="#7E6A6A" stroke-dasharray="2 2"/>
<path fill-rule="evenodd" clip-rule="evenodd" d="M20.1015 11.1522C20.1015 10.5439 19.6083 10.0508 19 10.0508C18.3917 10.0508 17.8986 10.5439 17.8986 11.1522V15.8985C17.8986 17.003 17.0031 17.8985 15.8986 17.8985H11.1522C10.5439 17.8985 10.0508 18.3916 10.0508 18.9999C10.0508 19.6082 10.5439 20.1014 11.1522 20.1014H15.8986C17.0031 20.1014 17.8986 20.9968 17.8986 22.1014V26.9856C17.8986 27.5939 18.3917 28.087 19 28.087C19.6083 28.087 20.1015 27.5939 20.1015 26.9856V22.1014C20.1015 20.9968 20.9969 20.1014 22.1015 20.1014H26.9855C27.5938 20.1014 28.087 19.6082 28.087 18.9999C28.087 18.3916 27.5938 17.8985 26.9855 17.8985L22.1015 17.8985C20.9969 17.8985 20.1015 17.003 20.1015 15.8985V11.1522Z" fill="#7E6A6A"/>
</svg>
